<svg data-v-0dd9719b="" version="1.0" xmlns="http://www.w3.org/2000/svg" xmlns:xlink="http://www.w3.org/1999/xlink" width="100%" height="100%" viewBox="0 0 340.000000 250.000000" preserveAspectRatio="xMidYMid meet" color-interpolation-filters="sRGB" style="margin: auto;"> <rect data-v-0dd9719b="" x="0" y="0" width="100%" height="100%" fill="#fff" fill-opacity="1" class="background"></rect> <rect data-v-0dd9719b="" x="0" y="0" width="100%" height="100%" fill="url(#watermark)" fill-opacity="1" class="watermarklayer"></rect> <g data-v-0dd9719b="" fill="#333" class="icon-text-wrapper icon-svg-group iconsvg" transform="translate(67.31499481201172,93.39310455322266)"><g class="iconsvg-imagesvg" transform="translate(0,0)"><g><rect fill="#333" fill-opacity="0" stroke-width="2" x="0" y="0" width="60" height="63.213789034514726" class="image-rect"></rect> <svg x="0" y="0" width="60" height="63.213789034514726" filtersec="colorsb7196967512" class="image-svg-svg primary" style="overflow: visible;"><svg xmlns="http://www.w3.org/2000/svg" viewBox="0.006116670090705156 0.006116670090705156 94.90999603271484 99.99388885498047"><defs><linearGradient id="a7e7d890f-267e-4348-886f-350f594f2f58" x1="34.93" y1="68.73" x2="94.92" y2="68.73" gradientUnits="userSpaceOnUse"><stop offset="0" stop-color="#1eedc4"></stop><stop offset="1" stop-color="#1e9eed"></stop></linearGradient><linearGradient id="b121486f6-a521-4e2f-a3d9-5c8b534b652c" x1="16.82" y1="45.25" x2="48.77" y2="87.85" gradientUnits="userSpaceOnUse"><stop offset="0" stop-color="#1e9eed"></stop><stop offset="1" stop-color="#090380"></stop></linearGradient><linearGradient id="c756f81bd-29d5-43c6-aa8f-f84e21dfecfc" x1="50.23" y1="22.05" x2="102.44" y2="79.48" gradientUnits="userSpaceOnUse"><stop offset="0" stop-color="#1e9eed"></stop><stop offset="1" stop-color="#090380"></stop></linearGradient><linearGradient id="df3ba3f6f-c034-4b05-9a0f-7c63ac093bf8" x1="38.39" y1="22.98" x2="18.96" y2="53.89" gradientUnits="userSpaceOnUse"><stop offset="0" stop-color="#1eedc4"></stop><stop offset="1" stop-color="#1e9eed"></stop></linearGradient></defs><g><g><path d="M47.46 100a12.53 12.53 0 0 1-12.53-12.53c0-13 5.39-25.52 15.17-35.34 9.28-9.32 21.05-14.66 32.28-14.66a12.53 12.53 0 1 1 0 25.06C73.54 62.53 60 73.7 60 87.47A12.53 12.53 0 0 1 47.46 100z" opacity=".8" fill="url(#a7e7d890f-267e-4348-886f-350f594f2f58)"></path><path d="M47.46 100a12.53 12.53 0 0 1-12.53-12.53c0-13.77-13.56-24.94-22.4-24.94a12.53 12.53 0 0 1 0-25.06c11.24 0 23 5.34 32.28 14.66C54.6 62 60 74.5 60 87.47A12.53 12.53 0 0 1 47.46 100z" opacity=".8" fill="url(#b121486f6-a521-4e2f-a3d9-5c8b534b652c)"></path><path d="M82.38 62.53c-11.23 0-23-5.34-32.28-14.66-9.78-9.82-15.17-22.37-15.17-35.34a12.53 12.53 0 0 1 25.06 0C60 26.3 73.54 37.47 82.38 37.47a12.53 12.53 0 1 1 0 25.06z" opacity=".8" fill="url(#c756f81bd-29d5-43c6-aa8f-f84e21dfecfc)"></path><path d="M12.53 62.53a12.53 12.53 0 0 1 0-25.06c8.84 0 22.4-11.17 22.4-24.94a12.53 12.53 0 0 1 25.06 0c0 13-5.39 25.52-15.18 35.34-9.27 9.32-21.04 14.66-32.28 14.66z" opacity=".8" fill="url(#df3ba3f6f-c034-4b05-9a0f-7c63ac093bf8)"></path></g></g></svg></svg> <!----></g></g> <g transform="translate(67,9.046895980834961)"><g data-gra="path-name" fill-rule="" class="tp-name iconsvg-namesvg"><g transform="scale(1)"><g><path d="M28.51 0.79L19.98 0.53Q19.37-0.32 19.06-1.38 18.75-2.43 18.6-3.38 18.46-4.34 18.44-5.04 18.43-5.74 18.43-5.89L18.43-5.89Q18.43-6.83 18.35-8.13 18.28-9.43 18.02-10.83 17.75-12.22 17.27-13.58 16.79-14.94 15.95-16.03 15.12-17.11 13.9-17.77 12.69-18.43 10.99-18.43L10.99-18.43Q10.75-18.43 10.5-18.4 10.25-18.37 10.02-18.37L10.02-18.37 10.02-0.12 1.93 0.06Q2.11-0.97 2.24-2.36 2.37-3.75 2.46-5.32 2.55-6.88 2.61-8.58 2.67-10.28 2.7-11.92 2.72-13.56 2.74-15.1 2.75-16.64 2.75-17.87L2.75-17.87Q2.75-18.81 2.74-20.63 2.72-22.44 2.68-24.71 2.64-26.98 2.59-29.49 2.55-31.99 2.49-34.29 2.43-36.59 2.36-38.48 2.29-40.37 2.23-41.4L2.23-41.4Q3.84-41.72 5.68-41.88 7.53-42.04 9.11-42.13L9.11-42.13Q10.96-42.25 12.77-42.25L12.77-42.25Q15.7-42.36 18.28-41.76 20.86-41.16 22.81-39.74 24.76-38.32 25.91-36.08 27.07-33.84 27.13-30.73L27.13-30.73Q26.66-28.54 25.63-26.66L25.63-26.66Q25.2-25.87 24.59-25.03 23.99-24.2 23.19-23.47 22.38-22.73 21.36-22.13 20.33-21.53 19.07-21.18L19.07-21.18Q20.95-20.45 22.12-19.47 23.29-18.49 23.96-17.27 24.64-16.05 24.95-14.66 25.25-13.27 25.39-11.73 25.52-10.2 25.61-8.57 25.69-6.94 25.93-5.27L25.93-5.27Q26.16-4.01 26.51-2.87L26.51-2.87Q26.84-1.88 27.32-0.86 27.8 0.15 28.51 0.79L28.51 0.79ZM19.69-30.35L19.69-30.35Q19.66-32.23 18.87-33.72L18.87-33.72Q18.52-34.34 17.97-34.95 17.43-35.57 16.63-36.04 15.82-36.5 14.69-36.8 13.56-37.09 12.07-37.09L12.07-37.09Q10.93-37.09 9.55-36.77L9.55-36.77 9.67-23.53Q10.2-23.44 10.72-23.39 11.25-23.35 11.69-23.35L11.69-23.35Q13.1-23.35 14.18-23.64 15.26-23.94 16.08-24.43 16.9-24.93 17.49-25.55 18.08-26.16 18.49-26.84L18.49-26.84Q19.42-28.39 19.69-30.35ZM57.25-21.01L57.25-21.01Q57.25-16.32 56.37-12.22 55.49-8.12 53.76-5.05 52.03-1.99 49.47-0.22 46.9 1.55 43.56 1.55L43.56 1.55Q40.17 1.55 37.6-0.22 35.04-1.99 33.33-5.05 31.61-8.12 30.75-12.22 29.88-16.32 29.88-21.01L29.88-21.01Q29.88-25.66 30.72-29.77 31.55-33.87 33.25-36.91 34.95-39.96 37.53-41.73 40.11-43.51 43.56-43.51L43.56-43.51Q47.14-43.51 49.73-41.73 52.32-39.96 53.99-36.91 55.66-33.87 56.46-29.77 57.25-25.66 57.25-21.01ZM49.57-21.01L49.57-21.01Q49.57-24.64 49.28-27.85 48.98-31.05 48.3-33.44 47.61-35.83 46.45-37.21 45.29-38.58 43.56-38.58L43.56-38.58Q41.89-38.58 40.75-37.21 39.61-35.83 38.91-33.44 38.2-31.05 37.88-27.85 37.56-24.64 37.56-21.01L37.56-21.01Q37.56-17.34 37.88-14.14 38.2-10.93 38.92-8.54 39.64-6.15 40.78-4.76 41.92-3.37 43.56-3.37L43.56-3.37Q45.18-3.37 46.32-4.76 47.46-6.15 48.19-8.54 48.93-10.93 49.25-14.14 49.57-17.34 49.57-21.01ZM83.09 0.67L83.09 0.67Q80.92 0.67 79.04 0.81 77.17 0.94 75 1.2L75 1.2Q73.97-1.99 72.91-5.16 71.84-8.32 70.66-11.57L70.66-11.57Q69.49-8.2 68.39-4.89 67.29-1.58 66.15 1.61L66.15 1.61 57.95 1.2Q59.3-1.41 60.56-3.98 61.82-6.56 62.97-9.17 64.13-11.78 65.23-14.46 66.33-17.14 67.35-19.98L67.35-19.98Q65.27-25.14 62.92-30.51 60.56-35.89 57.89-41.81L57.89-41.81Q59.03-41.84 60.06-41.88 61.08-41.92 62.07-41.97 63.05-42.01 64.03-42.04 65.01-42.07 66.04-42.13L66.04-42.13Q67.03-38.5 68.14-35.16 69.26-31.82 70.37-28.62L70.37-28.62Q71.37-31.73 72.35-35.07 73.33-38.41 74.33-42.13L74.33-42.13Q76.9-41.95 79.25-41.95L79.25-41.95Q80.16-41.95 81.04-41.95 81.91-41.95 82.91-42.01L82.91-42.01Q80.07-36.53 77.84-31.1 75.62-25.66 73.65-20.21L73.65-20.21Q76.03-14.47 78.43-9.33 80.83-4.19 83.09 0.67ZM111.04-21.01L111.04-21.01Q111.04-16.32 110.16-12.22 109.28-8.12 107.55-5.05 105.82-1.99 103.26-0.22 100.69 1.55 97.35 1.55L97.35 1.55Q93.96 1.55 91.39-0.22 88.83-1.99 87.11-5.05 85.4-8.12 84.54-12.22 83.67-16.32 83.67-21.01L83.67-21.01Q83.67-25.66 84.51-29.77 85.34-33.87 87.04-36.91 88.74-39.96 91.32-41.73 93.9-43.51 97.35-43.51L97.35-43.51Q100.93-43.51 103.52-41.73 106.11-39.96 107.78-36.91 109.45-33.87 110.24-29.77 111.04-25.66 111.04-21.01ZM103.36-21.01L103.36-21.01Q103.36-24.64 103.07-27.85 102.77-31.05 102.08-33.44 101.4-35.83 100.24-37.21 99.08-38.58 97.35-38.58L97.35-38.58Q95.68-38.58 94.54-37.21 93.4-35.83 92.7-33.44 91.99-31.05 91.67-27.85 91.35-24.64 91.35-21.01L91.35-21.01Q91.35-17.34 91.67-14.14 91.99-10.93 92.71-8.54 93.43-6.15 94.57-4.76 95.71-3.37 97.35-3.37L97.35-3.37Q98.96-3.37 100.11-4.76 101.25-6.15 101.98-8.54 102.71-10.93 103.04-14.14 103.36-17.34 103.36-21.01ZM132.51-42.77L140.3-43.01Q140.16-40.63 140.05-38.07 139.95-35.51 139.88-32.93 139.8-30.35 139.76-27.86 139.72-25.37 139.69-23.17 139.66-20.98 139.66-19.16 139.66-17.34 139.66-16.08L139.66-16.08Q139.66-14.44 139.66-12.45 139.66-10.46 139.69-8.35 139.72-6.24 139.76-4.12 139.8-1.99 139.89-0.12L139.89-0.12Q138.63-0.18 137.59-0.18 136.55-0.18 135.7-0.18L135.7-0.18Q134.18-0.18 133.18-0.15 132.19-0.12 131.6-0.06L131.6-0.06Q130.9 0 130.52 0.06L130.52 0.06Q130.43-0.56 130.15-1.86 129.87-3.16 129.45-4.95 129.02-6.74 128.47-8.91 127.91-11.07 127.28-13.42 126.65-15.76 125.98-18.18 125.3-20.6 124.64-22.9 123.98-25.2 123.35-27.26 122.72-29.33 122.2-30.97L122.2-30.97Q121.96-27.22 121.85-24.04 121.73-20.86 121.67-18.49L121.67-18.49Q121.58-15.73 121.58-13.45L121.58-13.45Q121.58-11.48 121.67-9.29L121.67-9.29Q121.73-7.41 121.89-5.01 122.05-2.61 122.37-0.12L122.37-0.12Q120.12-0.21 118.67-0.22 117.22-0.23 116.37-0.23L116.37-0.23 114.93-0.23Q115.08-5.48 115.17-9.14 115.25-12.8 115.3-15.28 115.34-17.75 115.36-19.25 115.37-20.74 115.37-21.67 115.37-22.59 115.36-23.14 115.34-23.7 115.34-24.29L115.34-24.29Q115.34-25.75 115.33-27.77 115.31-29.79 115.25-32.12 115.2-34.45 115.08-36.97 114.96-39.49 114.76-41.95L114.76-41.95Q117.74-41.95 119.68-42.01 121.61-42.07 122.75-42.13L122.75-42.13Q124.1-42.22 124.83-42.3L124.83-42.3Q124.98-41.37 125.43-39.38 125.89-37.38 126.52-34.76 127.15-32.14 127.94-29.09 128.73-26.04 129.57-22.95 130.4-19.86 131.25-16.95 132.1-14.03 132.86-11.69L132.86-11.69Q133.01-14.18 133.08-16.77 133.15-19.37 133.2-21.62 133.24-23.88 133.24-25.56 133.24-27.25 133.24-27.89L133.24-27.89Q133.21-30.56 133.13-33.22L133.13-33.22Q133.1-34.37 133.04-35.6 132.98-36.83 132.91-38.07 132.83-39.32 132.73-40.52 132.63-41.72 132.51-42.77L132.51-42.77Z" transform="translate(-1.9300000667572021, 43.5099983215332)"></path></g> <!----> <!----> <!----> <!----> <!----> <!----> <!----></g></g> <!----></g></g><defs v-gra="od"></defs></svg>